<mxfile host="65bd71144e">
    <diagram id="_-OOQbbxDN_PM-V77QYS" name="Page-1">
        <mxGraphModel dx="1198" dy="452" grid="1" gridSize="10" guides="1" tooltips="1" connect="1" arrows="1" fold="1" page="1" pageScale="1" pageWidth="1600" pageHeight="1600" math="0" shadow="0">
            <root>
                <mxCell id="0"/>
                <mxCell id="1" parent="0"/>
                <mxCell id="2" value="" style="edgeStyle=elbowEdgeStyle;elbow=horizontal;endArrow=classic;html=1;" parent="1" edge="1">
                    <mxGeometry width="50" height="50" relative="1" as="geometry">
                        <mxPoint x="110" y="70" as="sourcePoint"/>
                        <mxPoint x="160" y="20" as="targetPoint"/>
                    </mxGeometry>
                </mxCell>
                <mxCell id="3" value="" style="edgeStyle=elbowEdgeStyle;elbow=horizontal;endArrow=classic;html=1;" parent="1" edge="1">
                    <mxGeometry width="50" height="50" relative="1" as="geometry">
                        <mxPoint x="210" y="60" as="sourcePoint"/>
                        <mxPoint x="260" y="10" as="targetPoint"/>
                    </mxGeometry>
                </mxCell>
                <mxCell id="4" value="" style="edgeStyle=elbowEdgeStyle;elbow=horizontal;endArrow=classic;html=1;" parent="1" edge="1">
                    <mxGeometry width="50" height="50" relative="1" as="geometry">
                        <mxPoint x="300" y="70" as="sourcePoint"/>
                        <mxPoint x="350" y="20" as="targetPoint"/>
                    </mxGeometry>
                </mxCell>
                <mxCell id="5" value="UnaryExp" style="text;html=1;align=center;verticalAlign=middle;resizable=0;points=[];autosize=1;strokeColor=none;fontFamily=consolas;" parent="1" vertex="1">
                    <mxGeometry x="10" y="240" width="70" height="20" as="geometry"/>
                </mxCell>
                <mxCell id="6" value="PrimaryExp" style="text;html=1;align=center;verticalAlign=middle;resizable=0;points=[];autosize=1;strokeColor=none;fontFamily=consolas;" parent="1" vertex="1">
                    <mxGeometry x="140" y="150" width="80" height="20" as="geometry"/>
                </mxCell>
                <mxCell id="7" value="UnaryExp" style="text;html=1;align=center;verticalAlign=middle;resizable=0;points=[];autosize=1;strokeColor=none;fontFamily=consolas;" parent="1" vertex="1">
                    <mxGeometry x="190" y="80" width="70" height="20" as="geometry"/>
                </mxCell>
                <mxCell id="8" value="" style="edgeStyle=elbowEdgeStyle;elbow=horizontal;endArrow=classic;html=1;exitX=1.018;exitY=0.487;exitDx=0;exitDy=0;exitPerimeter=0;entryX=-0.042;entryY=0.528;entryDx=0;entryDy=0;entryPerimeter=0;" parent="1" source="5" target="12" edge="1">
                    <mxGeometry width="50" height="50" relative="1" as="geometry">
                        <mxPoint x="100" y="249.86" as="sourcePoint"/>
                        <mxPoint x="130" y="250" as="targetPoint"/>
                    </mxGeometry>
                </mxCell>
                <mxCell id="9" value="" style="edgeStyle=elbowEdgeStyle;elbow=horizontal;endArrow=classic;html=1;exitX=1.021;exitY=0.472;exitDx=0;exitDy=0;exitPerimeter=0;entryX=0.031;entryY=0.506;entryDx=0;entryDy=0;entryPerimeter=0;" parent="1" source="5" target="6" edge="1">
                    <mxGeometry width="50" height="50" relative="1" as="geometry">
                        <mxPoint x="69.99999999999999" y="150" as="sourcePoint"/>
                        <mxPoint x="150" y="160" as="targetPoint"/>
                        <Array as="points">
                            <mxPoint x="100" y="180"/>
                        </Array>
                    </mxGeometry>
                </mxCell>
                <mxCell id="10" value="" style="edgeStyle=elbowEdgeStyle;elbow=horizontal;endArrow=classic;html=1;exitX=1.033;exitY=0.494;exitDx=0;exitDy=0;exitPerimeter=0;entryX=-0.024;entryY=0.448;entryDx=0;entryDy=0;entryPerimeter=0;" parent="1" source="5" target="13" edge="1">
                    <mxGeometry width="50" height="50" relative="1" as="geometry">
                        <mxPoint x="79.99999999999997" y="329.32" as="sourcePoint"/>
                        <mxPoint x="160" y="290" as="targetPoint"/>
                        <Array as="points">
                            <mxPoint x="100" y="290"/>
                            <mxPoint x="100" y="270"/>
                        </Array>
                    </mxGeometry>
                </mxCell>
                <mxCell id="12" value="Ident '(' [FuncRParams] ')'" style="text;html=1;align=center;verticalAlign=middle;resizable=0;points=[];autosize=1;strokeColor=none;fontFamily=consolas;" parent="1" vertex="1">
                    <mxGeometry x="150" y="240" width="190" height="20" as="geometry"/>
                </mxCell>
                <mxCell id="13" value="UnaryOp UnaryExp" style="text;html=1;align=center;verticalAlign=middle;resizable=0;points=[];autosize=1;strokeColor=none;fontFamily=consolas;" parent="1" vertex="1">
                    <mxGeometry x="150" y="310" width="120" height="20" as="geometry"/>
                </mxCell>
                <mxCell id="14" value="" style="edgeStyle=elbowEdgeStyle;elbow=horizontal;endArrow=classic;html=1;exitX=1.018;exitY=0.487;exitDx=0;exitDy=0;exitPerimeter=0;entryX=-0.042;entryY=0.528;entryDx=0;entryDy=0;entryPerimeter=0;" parent="1" edge="1">
                    <mxGeometry width="50" height="50" relative="1" as="geometry">
                        <mxPoint x="12.069999999999993" y="50.779999999999944" as="sourcePoint"/>
                        <mxPoint x="72.82999999999998" y="51.599999999999994" as="targetPoint"/>
                    </mxGeometry>
                </mxCell>
                <mxCell id="15" value="" style="edgeStyle=elbowEdgeStyle;elbow=horizontal;endArrow=classic;html=1;exitX=1.021;exitY=0.472;exitDx=0;exitDy=0;exitPerimeter=0;entryX=0.031;entryY=0.506;entryDx=0;entryDy=0;entryPerimeter=0;" parent="1" edge="1">
                    <mxGeometry width="50" height="50" relative="1" as="geometry">
                        <mxPoint x="12.279999999999916" y="50.47999999999993" as="sourcePoint"/>
                        <mxPoint x="73.29000000000002" y="11.15999999999994" as="targetPoint"/>
                        <Array as="points">
                            <mxPoint x="30.810000000000002" y="31.039999999999992"/>
                        </Array>
                    </mxGeometry>
                </mxCell>
                <mxCell id="16" value="" style="edgeStyle=elbowEdgeStyle;elbow=horizontal;endArrow=classic;html=1;exitX=1.033;exitY=0.494;exitDx=0;exitDy=0;exitPerimeter=0;entryX=-0.024;entryY=0.448;entryDx=0;entryDy=0;entryPerimeter=0;" parent="1" edge="1">
                    <mxGeometry width="50" height="50" relative="1" as="geometry">
                        <mxPoint x="13.120000000000061" y="50.91999999999999" as="sourcePoint"/>
                        <mxPoint x="77.93" y="89.99999999999997" as="targetPoint"/>
                        <Array as="points">
                            <mxPoint x="30.810000000000002" y="91.03999999999999"/>
                            <mxPoint x="30.810000000000002" y="71.03999999999999"/>
                        </Array>
                    </mxGeometry>
                </mxCell>
                <mxCell id="17" value="" style="edgeStyle=elbowEdgeStyle;elbow=horizontal;endArrow=classic;html=1;entryX=-0.008;entryY=0.506;entryDx=0;entryDy=0;entryPerimeter=0;" parent="1" source="13" target="21" edge="1">
                    <mxGeometry width="50" height="50" relative="1" as="geometry">
                        <mxPoint x="309.99999999999994" y="319.6199999999999" as="sourcePoint"/>
                        <mxPoint x="310" y="320" as="targetPoint"/>
                        <Array as="points">
                            <mxPoint x="290" y="320"/>
                        </Array>
                    </mxGeometry>
                </mxCell>
                <mxCell id="18" value="" style="edgeStyle=elbowEdgeStyle;elbow=horizontal;endArrow=classic;html=1;entryX=0.025;entryY=0.517;entryDx=0;entryDy=0;entryPerimeter=0;" parent="1" source="13" target="20" edge="1">
                    <mxGeometry width="50" height="50" relative="1" as="geometry">
                        <mxPoint x="270" y="319" as="sourcePoint"/>
                        <mxPoint x="310" y="290" as="targetPoint"/>
                        <Array as="points">
                            <mxPoint x="290" y="300"/>
                        </Array>
                    </mxGeometry>
                </mxCell>
                <mxCell id="19" value="" style="edgeStyle=elbowEdgeStyle;elbow=horizontal;endArrow=classic;html=1;exitX=1.009;exitY=0.478;exitDx=0;exitDy=0;exitPerimeter=0;entryX=0.036;entryY=0.494;entryDx=0;entryDy=0;entryPerimeter=0;" parent="1" source="13" target="22" edge="1">
                    <mxGeometry width="50" height="50" relative="1" as="geometry">
                        <mxPoint x="311.0500000000001" y="319.76" as="sourcePoint"/>
                        <mxPoint x="310" y="350" as="targetPoint"/>
                        <Array as="points">
                            <mxPoint x="290" y="340"/>
                        </Array>
                    </mxGeometry>
                </mxCell>
                <mxCell id="20" value="'+'" style="text;html=1;align=center;verticalAlign=middle;resizable=0;points=[];autosize=1;strokeColor=none;fontFamily=consolas;" parent="1" vertex="1">
                    <mxGeometry x="320" y="280" width="40" height="20" as="geometry"/>
                </mxCell>
                <mxCell id="21" value="'-'" style="text;html=1;align=center;verticalAlign=middle;resizable=0;points=[];autosize=1;strokeColor=none;fontFamily=consolas;" parent="1" vertex="1">
                    <mxGeometry x="320" y="310" width="40" height="20" as="geometry"/>
                </mxCell>
                <mxCell id="22" value="'!'" style="text;html=1;align=center;verticalAlign=middle;resizable=0;points=[];autosize=1;strokeColor=none;fontFamily=consolas;" parent="1" vertex="1">
                    <mxGeometry x="320" y="340" width="40" height="20" as="geometry"/>
                </mxCell>
                <mxCell id="23" value="" style="edgeStyle=elbowEdgeStyle;elbow=horizontal;endArrow=classic;html=1;entryX=0.033;entryY=0.503;entryDx=0;entryDy=0;entryPerimeter=0;" parent="1" target="27" edge="1">
                    <mxGeometry width="50" height="50" relative="1" as="geometry">
                        <mxPoint x="220" y="160" as="sourcePoint"/>
                        <mxPoint x="311" y="160" as="targetPoint"/>
                    </mxGeometry>
                </mxCell>
                <mxCell id="24" value="" style="edgeStyle=elbowEdgeStyle;elbow=horizontal;endArrow=classic;html=1;" parent="1" source="6" target="26" edge="1">
                    <mxGeometry width="50" height="50" relative="1" as="geometry">
                        <mxPoint x="250.2100000000001" y="159.89999999999992" as="sourcePoint"/>
                        <mxPoint x="311.21999999999997" y="120.57999999999997" as="targetPoint"/>
                        <Array as="points">
                            <mxPoint x="268.74" y="140.45999999999998"/>
                        </Array>
                    </mxGeometry>
                </mxCell>
                <mxCell id="25" value="" style="edgeStyle=elbowEdgeStyle;elbow=horizontal;endArrow=classic;html=1;" parent="1" source="6" target="30" edge="1">
                    <mxGeometry width="50" height="50" relative="1" as="geometry">
                        <mxPoint x="251.05000000000013" y="160.33999999999997" as="sourcePoint"/>
                        <mxPoint x="300" y="199" as="targetPoint"/>
                        <Array as="points">
                            <mxPoint x="268.74" y="200.45999999999998"/>
                            <mxPoint x="268.74" y="180.45999999999998"/>
                        </Array>
                    </mxGeometry>
                </mxCell>
                <mxCell id="26" value="'(' Exp ')'" style="text;html=1;align=center;verticalAlign=middle;resizable=0;points=[];autosize=1;strokeColor=none;fontFamily=consolas;" parent="1" vertex="1">
                    <mxGeometry x="295" y="110" width="90" height="20" as="geometry"/>
                </mxCell>
                <mxCell id="27" value="LVal" style="text;html=1;align=center;verticalAlign=middle;resizable=0;points=[];autosize=1;strokeColor=none;fontFamily=consolas;" parent="1" vertex="1">
                    <mxGeometry x="295" y="150" width="40" height="20" as="geometry"/>
                </mxCell>
                <mxCell id="28" value="Ident { '[' Exp ']' }" style="text;html=1;align=center;verticalAlign=middle;resizable=0;points=[];autosize=1;strokeColor=none;fontFamily=consolas;" parent="1" vertex="1">
                    <mxGeometry x="360" y="150" width="150" height="20" as="geometry"/>
                </mxCell>
                <mxCell id="29" value="" style="edgeStyle=elbowEdgeStyle;elbow=horizontal;endArrow=classic;html=1;" parent="1" source="27" target="28" edge="1">
                    <mxGeometry width="50" height="50" relative="1" as="geometry">
                        <mxPoint x="340" y="159.8" as="sourcePoint"/>
                        <mxPoint x="360" y="160" as="targetPoint"/>
                    </mxGeometry>
                </mxCell>
                <mxCell id="30" value="Number" style="text;html=1;align=center;verticalAlign=middle;resizable=0;points=[];autosize=1;strokeColor=none;fontFamily=consolas;" parent="1" vertex="1">
                    <mxGeometry x="295" y="190" width="50" height="20" as="geometry"/>
                </mxCell>
                <mxCell id="31" value="" style="edgeStyle=elbowEdgeStyle;elbow=horizontal;endArrow=classic;html=1;" parent="1" source="30" target="32" edge="1">
                    <mxGeometry width="50" height="50" relative="1" as="geometry">
                        <mxPoint x="365" y="199.8" as="sourcePoint"/>
                        <mxPoint x="390" y="199.8" as="targetPoint"/>
                    </mxGeometry>
                </mxCell>
                <mxCell id="32" value="Intconst" style="text;html=1;align=center;verticalAlign=middle;resizable=0;points=[];autosize=1;strokeColor=none;fontFamily=consolas;" parent="1" vertex="1">
                    <mxGeometry x="360" y="190" width="70" height="20" as="geometry"/>
                </mxCell>
                <mxCell id="34" value="" style="edgeStyle=elbowEdgeStyle;elbow=horizontal;endArrow=classic;html=1;exitX=1.018;exitY=0.487;exitDx=0;exitDy=0;exitPerimeter=0;entryX=-0.042;entryY=0.528;entryDx=0;entryDy=0;entryPerimeter=0;" parent="1" edge="1">
                    <mxGeometry width="50" height="50" relative="1" as="geometry">
                        <mxPoint x="89.99999999999994" y="469.61999999999995" as="sourcePoint"/>
                        <mxPoint x="150.75999999999993" y="470.44" as="targetPoint"/>
                    </mxGeometry>
                </mxCell>
                <mxCell id="35" value="" style="edgeStyle=elbowEdgeStyle;elbow=horizontal;endArrow=classic;html=1;exitX=1.021;exitY=0.472;exitDx=0;exitDy=0;exitPerimeter=0;entryX=0.031;entryY=0.506;entryDx=0;entryDy=0;entryPerimeter=0;" parent="1" edge="1">
                    <mxGeometry width="50" height="50" relative="1" as="geometry">
                        <mxPoint x="90.20999999999998" y="469.3199999999999" as="sourcePoint"/>
                        <mxPoint x="151.21999999999997" y="429.99999999999994" as="targetPoint"/>
                        <Array as="points">
                            <mxPoint x="108.74000000000001" y="449.88"/>
                        </Array>
                    </mxGeometry>
                </mxCell>
                <mxCell id="36" value="" style="edgeStyle=elbowEdgeStyle;elbow=horizontal;endArrow=classic;html=1;exitX=1.033;exitY=0.494;exitDx=0;exitDy=0;exitPerimeter=0;entryX=-0.024;entryY=0.448;entryDx=0;entryDy=0;entryPerimeter=0;" parent="1" edge="1">
                    <mxGeometry width="50" height="50" relative="1" as="geometry">
                        <mxPoint x="91.05000000000013" y="469.75999999999993" as="sourcePoint"/>
                        <mxPoint x="155.86000000000007" y="508.83999999999986" as="targetPoint"/>
                        <Array as="points">
                            <mxPoint x="108.74000000000001" y="509.88"/>
                            <mxPoint x="108.74000000000001" y="489.88"/>
                        </Array>
                    </mxGeometry>
                </mxCell>
                <mxCell id="37" value="Decl" style="text;html=1;align=center;verticalAlign=middle;resizable=0;points=[];autosize=1;strokeColor=none;fontFamily=consolas;" parent="1" vertex="1">
                    <mxGeometry x="70" y="590" width="40" height="20" as="geometry"/>
                </mxCell>
                <mxCell id="38" value="" style="edgeStyle=elbowEdgeStyle;elbow=horizontal;endArrow=classic;html=1;entryX=-0.013;entryY=0.494;entryDx=0;entryDy=0;entryPerimeter=0;" parent="1" source="37" target="41" edge="1">
                    <mxGeometry width="50" height="50" relative="1" as="geometry">
                        <mxPoint x="120.00000000000018" y="600" as="sourcePoint"/>
                        <mxPoint x="160" y="620" as="targetPoint"/>
                        <Array as="points">
                            <mxPoint x="130" y="620"/>
                            <mxPoint x="137.69" y="620.12"/>
                        </Array>
                    </mxGeometry>
                </mxCell>
                <mxCell id="39" value="" style="edgeStyle=elbowEdgeStyle;elbow=horizontal;endArrow=classic;html=1;" parent="1" source="37" target="40" edge="1">
                    <mxGeometry width="50" height="50" relative="1" as="geometry">
                        <mxPoint x="120.00000000000003" y="599.32" as="sourcePoint"/>
                        <mxPoint x="140" y="570" as="targetPoint"/>
                        <Array as="points">
                            <mxPoint x="130" y="580"/>
                        </Array>
                    </mxGeometry>
                </mxCell>
                <mxCell id="40" value="ConstDecl" style="text;html=1;align=center;verticalAlign=middle;resizable=0;points=[];autosize=1;strokeColor=none;fontFamily=consolas;" parent="1" vertex="1">
                    <mxGeometry x="160" y="570" width="70" height="20" as="geometry"/>
                </mxCell>
                <mxCell id="41" value="VarDecl" style="text;html=1;align=center;verticalAlign=middle;resizable=0;points=[];autosize=1;strokeColor=none;fontFamily=consolas;" parent="1" vertex="1">
                    <mxGeometry x="160" y="660" width="60" height="20" as="geometry"/>
                </mxCell>
                <mxCell id="42" value="" style="edgeStyle=elbowEdgeStyle;elbow=horizontal;endArrow=classic;html=1;exitX=0.983;exitY=0.506;exitDx=0;exitDy=0;exitPerimeter=0;entryX=0.001;entryY=0.483;entryDx=0;entryDy=0;entryPerimeter=0;" parent="1" source="40" target="43" edge="1">
                    <mxGeometry width="50" height="50" relative="1" as="geometry">
                        <mxPoint x="245.78" y="560" as="sourcePoint"/>
                        <mxPoint x="260" y="580" as="targetPoint"/>
                        <Array as="points"/>
                    </mxGeometry>
                </mxCell>
                <mxCell id="43" value="'const' 'int' ConstDef {, ConstDef} ';'" style="text;html=1;align=center;verticalAlign=middle;resizable=0;points=[];autosize=1;strokeColor=none;fontFamily=consolas;" parent="1" vertex="1">
                    <mxGeometry x="260" y="570" width="270" height="20" as="geometry"/>
                </mxCell>
                <mxCell id="44" value="" style="edgeStyle=elbowEdgeStyle;elbow=horizontal;endArrow=classic;html=1;" parent="1" source="41" target="45" edge="1">
                    <mxGeometry width="50" height="50" relative="1" as="geometry">
                        <mxPoint x="233.80999999999995" y="640.1199999999999" as="sourcePoint"/>
                        <mxPoint x="265" y="670" as="targetPoint"/>
                        <Array as="points"/>
                    </mxGeometry>
                </mxCell>
                <mxCell id="45" value="'int' VarDef {',' VarDef} ';'" style="text;html=1;align=center;verticalAlign=middle;resizable=0;points=[];autosize=1;strokeColor=none;fontFamily=consolas;" parent="1" vertex="1">
                    <mxGeometry x="245" y="660" width="210" height="20" as="geometry"/>
                </mxCell>
                <mxCell id="46" value="FuncDef" style="text;html=1;align=center;verticalAlign=middle;resizable=0;points=[];autosize=1;strokeColor=none;fontFamily=consolas;" parent="1" vertex="1">
                    <mxGeometry x="70" y="720" width="60" height="20" as="geometry"/>
                </mxCell>
                <mxCell id="47" value="" style="edgeStyle=elbowEdgeStyle;elbow=horizontal;endArrow=classic;html=1;" parent="1" source="45" edge="1">
                    <mxGeometry width="50" height="50" relative="1" as="geometry">
                        <mxPoint x="445" y="670.1999999999999" as="sourcePoint"/>
                        <mxPoint x="506" y="670" as="targetPoint"/>
                    </mxGeometry>
                </mxCell>
                <mxCell id="48" value="" style="edgeStyle=elbowEdgeStyle;elbow=horizontal;endArrow=classic;html=1;entryX=0.031;entryY=0.506;entryDx=0;entryDy=0;entryPerimeter=0;" parent="1" source="45" edge="1">
                    <mxGeometry width="50" height="50" relative="1" as="geometry">
                        <mxPoint x="445.21000000000004" y="669.9" as="sourcePoint"/>
                        <mxPoint x="506.22" y="630.58" as="targetPoint"/>
                        <Array as="points">
                            <mxPoint x="463.74" y="650.46"/>
                        </Array>
                    </mxGeometry>
                </mxCell>
                <mxCell id="49" value="" style="edgeStyle=elbowEdgeStyle;elbow=horizontal;endArrow=classic;html=1;entryX=-0.024;entryY=0.448;entryDx=0;entryDy=0;entryPerimeter=0;" parent="1" source="45" edge="1">
                    <mxGeometry width="50" height="50" relative="1" as="geometry">
                        <mxPoint x="446.0500000000002" y="670.34" as="sourcePoint"/>
                        <mxPoint x="510.8600000000001" y="709.42" as="targetPoint"/>
                        <Array as="points">
                            <mxPoint x="463.74" y="710.46"/>
                            <mxPoint x="463.74" y="690.46"/>
                        </Array>
                    </mxGeometry>
                </mxCell>
                <mxCell id="50" value="'int' Ident ';'" style="text;html=1;align=center;verticalAlign=middle;resizable=0;points=[];autosize=1;strokeColor=none;fontFamily=consolas;" parent="1" vertex="1">
                    <mxGeometry x="520" y="620" width="110" height="20" as="geometry"/>
                </mxCell>
                <mxCell id="51" value="'int' Ident '['';'" style="text;html=1;align=center;verticalAlign=middle;resizable=0;points=[];autosize=1;strokeColor=none;fontFamily=consolas;" parent="1" vertex="1">
                    <mxGeometry x="520" y="660" width="130" height="20" as="geometry"/>
                </mxCell>
                <mxCell id="52" value="" style="edgeStyle=elbowEdgeStyle;elbow=horizontal;endArrow=classic;html=1;" parent="1" source="46" target="53" edge="1">
                    <mxGeometry width="50" height="50" relative="1" as="geometry">
                        <mxPoint x="140.0000000000001" y="729.5899999999998" as="sourcePoint"/>
                        <mxPoint x="200.76" y="730.4100000000001" as="targetPoint"/>
                    </mxGeometry>
                </mxCell>
                <mxCell id="53" value="('int'|'void') Ident '('" style="text;html=1;align=center;verticalAlign=middle;resizable=0;points=[];autosize=1;strokeColor=none;fontFamily=consolas;" parent="1" vertex="1">
                    <mxGeometry x="175" y="720" width="170" height="20" as="geometry"/>
                </mxCell>
                <mxCell id="54" value="MainFuncDef" style="text;html=1;align=center;verticalAlign=middle;resizable=0;points=[];autosize=1;strokeColor=none;fontFamily=consolas;" parent="1" vertex="1">
                    <mxGeometry x="55" y="760" width="90" height="20" as="geometry"/>
                </mxCell>
                <mxCell id="55" value="" style="edgeStyle=elbowEdgeStyle;elbow=horizontal;endArrow=classic;html=1;" parent="1" source="54" target="56" edge="1">
                    <mxGeometry width="50" height="50" relative="1" as="geometry">
                        <mxPoint x="140.0000000000001" y="769.5899999999997" as="sourcePoint"/>
                        <mxPoint x="200.76" y="770.4100000000001" as="targetPoint"/>
                    </mxGeometry>
                </mxCell>
                <mxCell id="56" value="'int' 'main'" style="text;html=1;align=center;verticalAlign=middle;resizable=0;points=[];autosize=1;strokeColor=none;fontFamily=consolas;" parent="1" vertex="1">
                    <mxGeometry x="180" y="760" width="90" height="20" as="geometry"/>
                </mxCell>
            </root>
        </mxGraphModel>
    </diagram>
    <diagram id="3hNqtufhGP-i6E4-2MX3" name="Frame">
        <mxGraphModel dx="1198" dy="452" grid="1" gridSize="10" guides="1" tooltips="1" connect="1" arrows="1" fold="1" page="1" pageScale="1" pageWidth="1600" pageHeight="1600" math="0" shadow="0">
            <root>
                <mxCell id="8onbfJoomfkCU1QnBean-0"/>
                <mxCell id="8onbfJoomfkCU1QnBean-1" parent="8onbfJoomfkCU1QnBean-0"/>
                <mxCell id="8onbfJoomfkCU1QnBean-2" value="Lexer" style="rounded=0;whiteSpace=wrap;html=1;" vertex="1" parent="8onbfJoomfkCU1QnBean-1">
                    <mxGeometry x="380" y="200" width="90" height="40" as="geometry"/>
                </mxCell>
                <mxCell id="8onbfJoomfkCU1QnBean-3" value="" style="rounded=0;whiteSpace=wrap;html=1;fillColor=none;" vertex="1" parent="8onbfJoomfkCU1QnBean-1">
                    <mxGeometry x="630" y="130" width="260" height="180" as="geometry"/>
                </mxCell>
                <mxCell id="8onbfJoomfkCU1QnBean-4" value="Text" style="text;html=1;align=center;verticalAlign=middle;resizable=0;points=[];autosize=1;strokeColor=none;" vertex="1" parent="8onbfJoomfkCU1QnBean-1">
                    <mxGeometry x="300" y="60" width="40" height="20" as="geometry"/>
                </mxCell>
            </root>
        </mxGraphModel>
    </diagram>
</mxfile>